<svg width="24" height="37" viewBox="0 0 24 37" fill="none" xmlns="http://www.w3.org/2000/svg">
<path d="M0.549072 5C0.549072 2.53906 2.51782 0.5 5.04907 0.5H18.5491C21.01 0.5 23.0491 2.53906 23.0491 5V32C23.0491 34.5312 21.01 36.5 18.5491 36.5H5.04907C2.51782 36.5 0.549072 34.5312 0.549072 32V5ZM5.04907 16.8125C5.04907 17.7969 5.7522 18.5 6.73657 18.5H16.8616C17.7756 18.5 18.5491 17.7969 18.5491 16.8125V11.1875C18.5491 10.2734 17.7756 9.5 16.8616 9.5H6.73657C5.7522 9.5 5.04907 10.2734 5.04907 11.1875V16.8125ZM6.17407 25.25C7.08813 25.25 7.86157 24.5469 7.86157 23.5625C7.86157 22.6484 7.08813 21.875 6.17407 21.875C5.1897 21.875 4.48657 22.6484 4.48657 23.5625C4.48657 24.5469 5.1897 25.25 6.17407 25.25ZM6.17407 27.5C5.1897 27.5 4.48657 28.2734 4.48657 29.1875C4.48657 30.1719 5.1897 30.875 6.17407 30.875C7.08813 30.875 7.86157 30.1719 7.86157 29.1875C7.86157 28.2734 7.08813 27.5 6.17407 27.5ZM11.7991 25.25C12.7131 25.25 13.4866 24.5469 13.4866 23.5625C13.4866 22.6484 12.7131 21.875 11.7991 21.875C10.8147 21.875 10.1116 22.6484 10.1116 23.5625C10.1116 24.5469 10.8147 25.25 11.7991 25.25ZM11.7991 27.5C10.8147 27.5 10.1116 28.2734 10.1116 29.1875C10.1116 30.1719 10.8147 30.875 11.7991 30.875C12.7131 30.875 13.4866 30.1719 13.4866 29.1875C13.4866 28.2734 12.7131 27.5 11.7991 27.5ZM17.4241 25.25C18.3381 25.25 19.1116 24.5469 19.1116 23.5625C19.1116 22.6484 18.3381 21.875 17.4241 21.875C16.4397 21.875 15.7366 22.6484 15.7366 23.5625C15.7366 24.5469 16.4397 25.25 17.4241 25.25ZM17.4241 27.5C16.4397 27.5 15.7366 28.2734 15.7366 29.1875C15.7366 30.1719 16.4397 30.875 17.4241 30.875C18.3381 30.875 19.1116 30.1719 19.1116 29.1875C19.1116 28.2734 18.3381 27.5 17.4241 27.5ZM9.54907 3.875C8.91626 3.875 8.42407 4.4375 8.42407 5C8.42407 5.63281 8.91626 6.125 9.54907 6.125H14.0491C14.6116 6.125 15.1741 5.63281 15.1741 5C15.1741 4.4375 14.6116 3.875 14.0491 3.875H9.54907Z" fill="white"/>
</svg>
