<svg width="57" height="57" viewBox="0 0 57 57" fill="none" xmlns="http://www.w3.org/2000/svg">
<g filter="url(#filter0_f_122_154)">
<circle cx="28.5" cy="28.5" r="25.5" fill="black" fill-opacity="0.3"/>
<circle cx="28.5" cy="28.5" r="24.5" stroke="white" stroke-width="2" stroke-linecap="square" stroke-linejoin="round"/>
</g>
<g filter="url(#filter1_f_122_154)">
<circle cx="28.5" cy="28.5" r="25.3" stroke="white" stroke-width="0.4" stroke-linecap="square" stroke-linejoin="round"/>
</g>
<path d="M24.1367 37.0703C24.1367 36.9531 24.0195 36.8359 23.8438 36.8359C23.668 36.8359 23.5508 36.9531 23.5508 37.0703C23.5508 37.1875 23.668 37.3047 23.8438 37.2461C24.0195 37.2461 24.1367 37.1875 24.1367 37.0703ZM22.3203 36.7773C22.3789 36.6602 22.5547 36.6016 22.7305 36.6602C22.9062 36.7188 22.9648 36.8359 22.9648 36.9531C22.9062 37.0703 22.7305 37.1289 22.6133 37.0703C22.4375 37.0703 22.3203 36.8945 22.3203 36.7773ZM24.957 36.7188C25.0742 36.6602 25.25 36.7773 25.25 36.8945C25.3086 37.0117 25.1914 37.0703 25.0156 37.1289C24.8398 37.1875 24.6641 37.1289 24.6641 37.0117C24.6641 36.8359 24.7812 36.7188 24.957 36.7188ZM28.7656 14.2188C36.9102 14.2188 43.5312 20.4297 43.5312 28.5156C43.5312 35.0195 39.5469 40.5859 33.6875 42.5195C32.9258 42.6953 32.6328 42.2266 32.6328 41.8164C32.6328 41.3477 32.6914 38.8867 32.6914 36.9531C32.6914 35.5469 32.2227 34.668 31.6953 34.1992C34.9766 33.8477 38.4336 33.3789 38.4336 27.7539C38.4336 26.1133 37.8477 25.3516 36.9102 24.2969C37.0273 23.8867 37.5547 22.3633 36.7344 20.3125C35.5039 19.9023 32.6914 21.8945 32.6914 21.8945C31.5195 21.543 30.2891 21.4258 29 21.4258C27.7695 21.4258 26.5391 21.543 25.3672 21.8945C25.3672 21.8945 22.4961 19.9609 21.3242 20.3125C20.5039 22.3633 20.9727 23.8867 21.1484 24.2969C20.2109 25.3516 19.7422 26.1133 19.7422 27.7539C19.7422 33.3789 23.082 33.8477 26.3633 34.1992C25.8945 34.6094 25.543 35.2539 25.4258 36.1914C24.5469 36.6016 22.4375 37.2461 21.1484 34.9609C20.3281 33.5547 18.8633 33.4375 18.8633 33.4375C17.457 33.4375 18.8047 34.375 18.8047 34.375C19.7422 34.7852 20.3867 36.4844 20.3867 36.4844C21.2656 39.1211 25.3672 38.2422 25.3672 38.2422C25.3672 39.4727 25.3672 41.4648 25.3672 41.875C25.3672 42.2266 25.1328 42.6953 24.3711 42.5781C18.5117 40.5859 14.4688 35.0195 14.4688 28.5156C14.4688 20.4297 20.6797 14.2188 28.7656 14.2188ZM20.1523 34.4336C20.2109 34.375 20.3281 34.4336 20.4453 34.4922C20.5625 34.6094 20.5625 34.7852 20.5039 34.8438C20.3867 34.9023 20.2695 34.8438 20.1523 34.7852C20.0938 34.668 20.0352 34.4922 20.1523 34.4336ZM19.5078 33.9648C19.5664 33.9062 19.625 33.9062 19.7422 33.9648C19.8594 34.0234 19.918 34.082 19.918 34.1406C19.8594 34.2578 19.7422 34.2578 19.625 34.1992C19.5078 34.1406 19.4492 34.082 19.5078 33.9648ZM21.3828 36.0742C21.5 35.957 21.6758 36.0156 21.793 36.1328C21.9102 36.25 21.9102 36.4258 21.8516 36.4844C21.793 36.6016 21.6172 36.543 21.5 36.4258C21.3242 36.3086 21.3242 36.1328 21.3828 36.0742ZM20.7383 35.1953C20.8555 35.1367 20.9727 35.1953 21.0898 35.3125C21.1484 35.4297 21.1484 35.6055 21.0898 35.6641C20.9727 35.7227 20.8555 35.6641 20.7383 35.5469C20.6211 35.4297 20.6211 35.2539 20.7383 35.1953Z" fill="white" fill-opacity="0.9"/>
<defs>
<filter id="filter0_f_122_154" x="0" y="0" width="57" height="57" filterUnits="userSpaceOnUse" color-interpolation-filters="sRGB">
<feFlood flood-opacity="0" result="BackgroundImageFix"/>
<feBlend mode="normal" in="SourceGraphic" in2="BackgroundImageFix" result="shape"/>
<feGaussianBlur stdDeviation="1.5" result="effect1_foregroundBlur_122_154"/>
</filter>
<filter id="filter1_f_122_154" x="2.4" y="2.4" width="52.2" height="52.2" filterUnits="userSpaceOnUse" color-interpolation-filters="sRGB">
<feFlood flood-opacity="0" result="BackgroundImageFix"/>
<feBlend mode="normal" in="SourceGraphic" in2="BackgroundImageFix" result="shape"/>
<feGaussianBlur stdDeviation="0.3" result="effect1_foregroundBlur_122_154"/>
</filter>
</defs>
</svg>
