<svg width="36" height="27" viewBox="0 0 36 27" fill="none" xmlns="http://www.w3.org/2000/svg">
<path d="M32.626 0C34.4541 0 36.001 1.54688 36.001 3.375C36.001 4.5 35.4385 5.48438 34.5947 6.11719L19.3369 17.5781C18.4932 18.2109 17.4385 18.2109 16.5947 17.5781L1.33691 6.11719C0.493164 5.48438 0.000976562 4.5 0.000976562 3.375C0.000976562 1.54688 1.47754 0 3.37598 0H32.626ZM15.2588 19.4062C16.876 20.6016 19.0557 20.6016 20.6729 19.4062L36.001 7.875V22.5C36.001 25.0312 33.9619 27 31.501 27H4.50098C1.96973 27 0.000976562 25.0312 0.000976562 22.5V7.875L15.2588 19.4062Z" fill="white"/>
</svg>
