<svg width="57" height="57" viewBox="0 0 57 57" fill="none" xmlns="http://www.w3.org/2000/svg">
<g filter="url(#filter0_f_122_145)">
<circle cx="28.5" cy="28.5" r="25.5" fill="black" fill-opacity="0.3"/>
<circle cx="28.5" cy="28.5" r="24.5" stroke="white" stroke-width="2" stroke-linecap="square" stroke-linejoin="round"/>
</g>
<g filter="url(#filter1_f_122_145)">
<circle cx="28.5" cy="28.5" r="25.3" stroke="white" stroke-width="0.4" stroke-linecap="square" stroke-linejoin="round"/>
</g>
<path d="M29 20.8125C32.9375 20.8125 36.1875 24.0625 36.1875 28C36.1875 32 32.9375 35.1875 29 35.1875C25 35.1875 21.8125 32 21.8125 28C21.8125 24.0625 25 20.8125 29 20.8125ZM29 32.6875C31.5625 32.6875 33.625 30.625 33.625 28C33.625 25.4375 31.5625 23.375 29 23.375C26.375 23.375 24.3125 25.4375 24.3125 28C24.3125 30.625 26.4375 32.6875 29 32.6875ZM38.125 20.5625C38.125 19.625 37.375 18.875 36.4375 18.875C35.5 18.875 34.75 19.625 34.75 20.5625C34.75 21.5 35.5 22.25 36.4375 22.25C37.375 22.25 38.125 21.5 38.125 20.5625ZM42.875 22.25C43 24.5625 43 31.5 42.875 33.8125C42.75 36.0625 42.25 38 40.625 39.6875C39 41.3125 37 41.8125 34.75 41.9375C32.4375 42.0625 25.5 42.0625 23.1875 41.9375C20.9375 41.8125 19 41.3125 17.3125 39.6875C15.6875 38 15.1875 36.0625 15.0625 33.8125C14.9375 31.5 14.9375 24.5625 15.0625 22.25C15.1875 20 15.6875 18 17.3125 16.375C19 14.75 20.9375 14.25 23.1875 14.125C25.5 14 32.4375 14 34.75 14.125C37 14.25 39 14.75 40.625 16.375C42.25 18 42.75 20 42.875 22.25ZM39.875 36.25C40.625 34.4375 40.4375 30.0625 40.4375 28C40.4375 26 40.625 21.625 39.875 19.75C39.375 18.5625 38.4375 17.5625 37.25 17.125C35.375 16.375 31 16.5625 29 16.5625C26.9375 16.5625 22.5625 16.375 20.75 17.125C19.5 17.625 18.5625 18.5625 18.0625 19.75C17.3125 21.625 17.5 26 17.5 28C17.5 30.0625 17.3125 34.4375 18.0625 36.25C18.5625 37.5 19.5 38.4375 20.75 38.9375C22.5625 39.6875 26.9375 39.5 29 39.5C31 39.5 35.375 39.6875 37.25 38.9375C38.4375 38.4375 39.4375 37.5 39.875 36.25Z" fill="white" fill-opacity="0.9"/>
<defs>
<filter id="filter0_f_122_145" x="0" y="0" width="57" height="57" filterUnits="userSpaceOnUse" color-interpolation-filters="sRGB">
<feFlood flood-opacity="0" result="BackgroundImageFix"/>
<feBlend mode="normal" in="SourceGraphic" in2="BackgroundImageFix" result="shape"/>
<feGaussianBlur stdDeviation="1.5" result="effect1_foregroundBlur_122_145"/>
</filter>
<filter id="filter1_f_122_145" x="2.4" y="2.4" width="52.2" height="52.2" filterUnits="userSpaceOnUse" color-interpolation-filters="sRGB">
<feFlood flood-opacity="0" result="BackgroundImageFix"/>
<feBlend mode="normal" in="SourceGraphic" in2="BackgroundImageFix" result="shape"/>
<feGaussianBlur stdDeviation="0.3" result="effect1_foregroundBlur_122_145"/>
</filter>
</defs>
</svg>
