<svg width="57" height="58" viewBox="0 0 57 58" fill="none" xmlns="http://www.w3.org/2000/svg">
<g filter="url(#filter0_f_122_146)">
<circle cx="28.5" cy="29" r="25.5" fill="black" fill-opacity="0.3"/>
<circle cx="28.5" cy="29" r="24.5" stroke="white" stroke-width="2" stroke-linecap="square" stroke-linejoin="round"/>
</g>
<g filter="url(#filter1_f_122_146)">
<circle cx="28.5" cy="29" r="25.3" stroke="white" stroke-width="0.4" stroke-linecap="square" stroke-linejoin="round"/>
</g>
<path d="M23.6875 37.5H19.3281V23.4844H23.6875V37.5ZM21.4844 21.6094C20.125 21.6094 19 20.4375 19 19.0312C19 17.1094 21.0625 15.8906 22.75 16.875C23.5469 17.2969 24.0156 18.1406 24.0156 19.0312C24.0156 20.4375 22.8906 21.6094 21.4844 21.6094ZM39.9531 37.5H35.6406V30.7031C35.6406 29.0625 35.5938 27 33.3438 27C31.0938 27 30.7656 28.7344 30.7656 30.5625V37.5H26.4062V23.4844H30.5781V25.4062H30.625C31.2344 24.3281 32.6406 23.1562 34.75 23.1562C39.1562 23.1562 40 26.0625 40 29.8125V37.5H39.9531Z" fill="white" fill-opacity="0.9"/>
<defs>
<filter id="filter0_f_122_146" x="0" y="0.5" width="57" height="57" filterUnits="userSpaceOnUse" color-interpolation-filters="sRGB">
<feFlood flood-opacity="0" result="BackgroundImageFix"/>
<feBlend mode="normal" in="SourceGraphic" in2="BackgroundImageFix" result="shape"/>
<feGaussianBlur stdDeviation="1.5" result="effect1_foregroundBlur_122_146"/>
</filter>
<filter id="filter1_f_122_146" x="2.4" y="2.9" width="52.2" height="52.2" filterUnits="userSpaceOnUse" color-interpolation-filters="sRGB">
<feFlood flood-opacity="0" result="BackgroundImageFix"/>
<feBlend mode="normal" in="SourceGraphic" in2="BackgroundImageFix" result="shape"/>
<feGaussianBlur stdDeviation="0.3" result="effect1_foregroundBlur_122_146"/>
</filter>
</defs>
</svg>
